HIERARCHY
ROOT Hips
{
	OFFSET 0.000000 0.000000 0.000000
	CHANNELS 6 Xposition Yposition Zposition Zrotation Yrotation Xrotation 
	JOINT LHipJoint
	{
		OFFSET 0.000000 0.000000 0.000000
		CHANNELS 3 Zrotation Yrotation Xrotation
		JOINT LeftUpLeg
		{
			OFFSET 1.363060 -1.794630 0.839290
			CHANNELS 3 Zrotation Yrotation Xrotation
			JOINT LeftLeg
			{
				OFFSET 2.448110 -6.726130 0.000000
				CHANNELS 3 Zrotation Yrotation Xrotation
				JOINT LeftFoot
				{
					OFFSET 2.562200 -7.039590 0.000000
					CHANNELS 3 Zrotation Yrotation Xrotation
					JOINT LeftToeBase
					{
						OFFSET 0.157640 -0.433110 2.322550
						CHANNELS 3 Zrotation Yrotation Xrotation
						End Site
						{
							OFFSET 0.000000 0.000000 0.000000
						}
					}
				}
			}
		}
	}
	JOINT RHipJoint
	{
		OFFSET 0.000000 0.000000 0.000000
		CHANNELS 3 Zrotation Yrotation Xrotation
		JOINT RightUpLeg
		{
			OFFSET -1.305520 -1.794630 0.839290
			CHANNELS 3 Zrotation Yrotation Xrotation
			JOINT RightLeg
			{
				OFFSET -2.542530 -6.985550 0.000000
				CHANNELS 3 Zrotation Yrotation Xrotation
				JOINT RightFoot
				{
					OFFSET -2.568260 -7.056230 0.000000
					CHANNELS 3 Zrotation Yrotation Xrotation
					JOINT RightToeBase
					{
						OFFSET -0.164730 -0.452590 2.363150
						CHANNELS 3 Zrotation Yrotation Xrotation
						End Site
						{
							OFFSET 0.000000 0.000000 0.000000
						}
					}
				}
			}
		}
	}
	JOINT LowerBack
	{
		OFFSET 0.000000 0.000000 0.000000
		CHANNELS 3 Zrotation Yrotation Xrotation
		JOINT Spine
		{
			OFFSET 0.028270 2.035590 -0.193380
			CHANNELS 3 Zrotation Yrotation Xrotation
			JOINT Spine1
			{
				OFFSET 0.056720 2.048850 -0.042750
				CHANNELS 3 Zrotation Yrotation Xrotation
				JOINT Neck
				{
					OFFSET 0.000000 0.000000 0.000000
					CHANNELS 3 Zrotation Yrotation Xrotation
					JOINT Neck1
					{
						OFFSET -0.054170 1.746240 0.172020
						CHANNELS 3 Zrotation Yrotation Xrotation
						JOINT Head
						{
							OFFSET 0.104070 1.761360 -0.123970
							CHANNELS 3 Zrotation Yrotation Xrotation
							End Site
							{
								OFFSET 0.000000 0.000000 0.000000
							}
						}
					}
				}
				JOINT LeftShoulder
				{
					OFFSET 0.000000 0.000000 0.000000
					CHANNELS 3 Zrotation Yrotation Xrotation
					JOINT LeftArm
					{
						OFFSET 3.362410 1.200890 -0.311210
						CHANNELS 3 Zrotation Yrotation Xrotation
						JOINT LeftForeArm
						{
							OFFSET 4.983000 -0.000000 -0.000000
							CHANNELS 3 Zrotation Yrotation Xrotation
							JOINT LeftHand
							{
								OFFSET 3.483560 -0.000000 -0.000000
								CHANNELS 3 Zrotation Yrotation Xrotation
								JOINT LeftFingerBase
								{
									OFFSET 0.000000 0.000000 0.000000
									CHANNELS 3 Zrotation Yrotation Xrotation
									JOINT LeftHandIndex1
									{
										OFFSET 0.715260 -0.000000 -0.000000
										CHANNELS 3 Zrotation Yrotation Xrotation
										End Site
										{
											OFFSET 0.000000 0.000000 0.000000
										}
									}
								}
								JOINT LThumb
								{
									OFFSET 0.000000 0.000000 0.000000
									CHANNELS 3 Zrotation Yrotation Xrotation
									End Site
									{
										OFFSET 0.000000 0.000000 0.000000
									}
								}
							}
						}
					}
				}
				JOINT RightShoulder
				{
					OFFSET 0.000000 0.000000 0.000000
					CHANNELS 3 Zrotation Yrotation Xrotation
					JOINT RightArm
					{
						OFFSET -3.136600 1.374050 -0.404650
						CHANNELS 3 Zrotation Yrotation Xrotation
						JOINT RightForeArm
						{
							OFFSET -5.241900 -0.000000 -0.000000
							CHANNELS 3 Zrotation Yrotation Xrotation
							JOINT RightHand
							{
								OFFSET -3.444170 -0.000000 -0.000000
								CHANNELS 3 Zrotation Yrotation Xrotation
								JOINT RightFingerBase
								{
									OFFSET 0.000000 0.000000 0.000000
									CHANNELS 3 Zrotation Yrotation Xrotation
									JOINT RightHandIndex1
									{
										OFFSET -0.622530 -0.000000 -0.000000
										CHANNELS 3 Zrotation Yrotation Xrotation
										End Site
										{
											OFFSET 0.000000 0.000000 0.000000
										}
									}
								}
								JOINT RThumb
								{
									OFFSET 0.000000 0.000000 0.000000
									CHANNELS 3 Zrotation Yrotation Xrotation
									End Site
									{
										OFFSET 0.000000 0.000000 0.000000
									}
								}
							}
						}
					}
				}
			}
		}
	}
}
MOTION
Frames: 8
Frame Time: 0.008333
10.276547 14.914601 10.115918 -176.962165 -3.999077 163.996353 4.693167 -1.528003 -3.659130 11.469731 14.543474 -38.069806 20.118135 22.477745 69.806603 7.652295 -4.548790 32.112419 1.536600 -7.825600 -22.185500 -1.765721 5.924732 -4.500703 -9.201248 -6.372435 -34.944193 -21.158170 -22.420794 63.679866 0.947887 -14.834763 37.273322 -1.526400 7.800700 -22.110300 -4.928839 -5.273007 31.605298 -0.818916 12.689328 22.999460 -0.326594 -5.982382 -10.378090 -6.780347 -6.017258 -16.630229 5.905708 -7.637391 4.590580 3.871700 -3.266700 2.839000 6.836083 -30.151920 -9.100997 -18.044108 -47.507858 44.196609 32.194118 -6.544863 -19.074497 -9.926776 -7.684747 20.519310 6.045128 23.617073 6.965000 -7.125000 0.000000 0.000000 -24.910700 62.838300 -11.150700 -5.067172 26.952213 0.942096 23.947892 43.706505 19.654152 -37.071481 21.245190 -35.621076 -3.331207 -3.078812 27.930404 -14.332922 19.481993 -5.344800 7.125000 0.000000 0.000000 10.036500 -5.814900 9.112200 
10.278899 14.904363 10.114811 -177.281830 -4.006704 163.970223 4.644981 -1.576738 -3.516548 11.187643 14.640453 -38.146831 20.066408 22.359383 69.825070 7.596297 -4.417020 32.194158 1.418200 -7.531300 -21.299300 -1.753966 5.824440 -4.615257 -9.490302 -6.277776 -34.808843 -21.320886 -22.579844 63.484962 1.366613 -15.827111 37.160759 -1.937300 8.734200 -24.967300 -5.879217 -4.743895 31.922831 0.365021 13.390565 22.453783 -0.696091 -5.818024 -10.243374 -6.594003 -5.962451 -16.484567 5.753456 -7.566981 4.553182 3.745500 -3.250900 2.795700 6.723142 -29.868337 -8.767863 -18.486844 -47.863746 43.669536 32.655362 -6.702673 -19.416976 -9.840173 -7.649302 20.607181 5.953948 23.644519 6.862500 -7.125000 0.000000 0.000000 -25.078600 62.778800 -11.195800 -5.340153 26.795934 0.886187 24.307101 44.256881 19.934528 -37.002257 20.908790 -35.207250 -3.342083 -3.196777 27.675249 -14.554193 19.432828 -5.464300 7.125000 0.000000 0.000000 9.883400 -5.725900 8.985800 
10.283050 14.910173 10.109969 -177.530459 -4.032767 164.124219 4.669526 -1.660952 -3.386802 10.809214 14.879827 -38.379274 20.033987 22.174590 69.786670 7.361340 -3.861735 32.169492 1.439200 -7.584500 -21.458900 -1.816466 5.725294 -4.754744 -9.924209 -6.062344 -34.868736 -21.178195 -22.767034 63.832883 0.627492 -14.136275 37.344396 -1.641000 8.074400 -22.940200 -6.986344 -4.040208 32.050716 2.022303 14.053955 21.691684 -1.350188 -5.479842 -9.902317 -6.328662 -5.879604 -16.499842 5.569419 -7.521645 4.531940 3.655600 -3.249300 2.845700 6.482444 -29.502538 -8.326525 -18.832399 -48.022135 43.037633 33.230121 -7.290422 -19.789926 -9.555309 -7.810542 20.189036 5.785164 23.643452 6.636500 -7.125000 0.000000 0.000000 -25.528600 62.697100 -11.361500 -5.718587 26.472921 0.814893 24.887729 45.081270 20.239754 -37.030506 20.516277 -34.823091 -3.413762 -3.270505 27.562700 -14.638148 19.321492 -5.484300 7.125000 0.000000 0.000000 9.850900 -5.729300 8.954700 
10.284710 14.920827 10.100837 -177.716354 -3.932522 164.277160 4.692216 -1.661519 -3.293344 10.574119 15.084848 -38.505958 20.032304 22.101055 69.785556 7.220327 -3.527738 32.082844 1.474100 -7.672000 -21.722100 -1.829522 5.721424 -4.848697 -10.241296 -5.791390 -34.866088 -21.020165 -22.856128 63.979892 -0.008333 -12.722594 37.624392 -1.301600 7.227800 -20.392100 -7.450011 -3.892598 32.079440 2.480261 14.375176 21.380617 -1.603555 -5.452464 -9.699984 -6.196820 -5.777266 -16.763712 5.521805 -7.448646 4.544080 3.658700 -3.219200 2.972200 6.429374 -29.504931 -8.269116 -18.719362 -47.782746 42.248275 33.323675 -7.738890 -20.024264 -9.678052 -7.972820 19.635014 6.115792 24.049976 7.003600 -7.125000 0.000000 0.000000 -25.532300 63.271900 -11.707700 -5.923834 26.320420 0.733902 24.936802 45.603559 20.416620 -37.075613 20.176042 -34.630087 -3.533253 -3.242848 27.621775 -14.478433 19.131790 -5.337500 7.125000 0.000000 0.000000 10.010800 -5.914200 9.068800 
10.285402 14.925531 10.095303 -177.909412 -3.800193 164.297878 4.649334 -1.596570 -3.258625 10.484252 15.137558 -38.448756 19.975053 22.170013 69.828306 7.486782 -4.135197 32.132087 1.298300 -7.219000 -20.365800 -1.928095 5.761701 -4.866806 -10.337177 -5.810243 -34.942460 -20.958235 -22.760746 64.110968 -0.369069 -11.923997 37.778879 -1.112600 6.701100 -18.832900 -6.932630 -4.368806 32.008126 1.222232 14.117564 21.862110 -1.146941 -5.663325 -9.829970 -6.361418 -5.643897 -16.816141 5.647694 -7.354064 4.541767 3.783600 -3.164800 2.916200 6.586595 -29.724452 -8.284431 -18.227191 -47.557595 41.229323 33.436576 -8.067542 -20.535107 -9.507306 -8.187098 19.126067 6.237837 24.110638 7.030400 -7.125000 0.000000 0.000000 -25.687600 63.404600 -11.863500 -5.772793 26.175109 0.628987 24.483804 45.473235 20.480093 -37.097824 20.118853 -34.734538 -3.697230 -3.180709 27.671956 -14.073871 19.303906 -5.137600 7.125000 0.000000 0.000000 10.371000 -5.783000 9.432700 
10.288031 14.919305 10.089492 -177.984893 -3.758984 164.228041 4.608026 -1.556317 -3.290640 10.532537 15.113349 -38.335188 19.966090 22.262560 69.921734 7.733106 -4.724896 32.162412 1.185400 -6.909600 -19.447900 -2.067770 5.735190 -4.819692 -10.100315 -6.229507 -35.092648 -21.076596 -22.602959 64.079739 -0.049759 -12.668065 37.634353 -1.360000 7.381700 -20.851100 -6.024426 -4.760761 31.890437 -0.136248 13.513661 22.475729 -0.658013 -5.767048 -9.935120 -6.517295 -5.567108 -16.815580 5.766914 -7.310727 4.576417 3.849100 -3.141300 2.879000 6.767804 -29.804822 -8.224104 -17.913693 -47.515806 40.335963 33.905857 -8.583353 -21.492413 -9.525943 -8.580447 18.356187 6.616479 24.757070 7.436100 -7.125000 0.000000 0.000000 -26.226400 64.313700 -12.684800 -5.509018 26.016162 0.535166 23.883779 45.058575 20.421590 -37.095013 20.199006 -34.896211 -3.800142 -3.210182 27.507259 -13.888595 19.726069 -5.121100 7.125000 0.000000 0.000000 10.556600 -5.321000 9.702000 
10.292043 14.906991 10.083266 -178.062660 -3.761227 164.243401 4.614729 -1.570081 -3.300831 10.486558 15.175639 -38.391808 20.048611 22.257531 70.060214 7.589641 -4.436985 31.982984 1.327000 -7.295000 -20.592300 -2.152336 5.694438 -4.822922 -10.004090 -6.427320 -35.209481 -21.179052 -22.561130 64.051020 0.244634 -13.338776 37.499138 -1.557400 7.875900 -22.337700 -5.744965 -4.750638 31.900834 -0.415723 13.273800 22.662194 -0.549254 -5.702406 -9.910638 -6.542510 -5.520168 -17.009995 5.781857 -7.240620 4.619550 3.824000 -3.112500 2.986200 6.839174 -29.786237 -8.158109 -17.851638 -47.513327 39.771715 34.336517 -8.976187 -22.084712 -9.231590 -8.785310 18.095522 6.450414 24.747802 7.189400 -7.125000 0.000000 0.000000 -26.801000 64.274300 -12.957500 -5.479383 25.998347 0.429414 23.314716 44.887089 20.435229 -37.018525 20.064476 -34.766308 -3.823926 -3.262425 27.304698 -13.977842 19.747330 -5.170400 7.125000 0.000000 0.000000 10.511300 -5.235400 9.676100 
10.294810 14.904778 10.082159 -178.379805 -3.685150 164.358203 4.567099 -1.589235 -3.248182 10.210223 15.298433 -38.524008 20.078692 22.232217 70.158695 7.441327 -4.143843 31.816949 1.386500 -7.450300 -21.056500 -2.262987 5.701011 -4.904652 -10.158901 -6.454731 -35.341625 -21.193678 -22.531097 64.078630 0.149921 -13.148276 37.560341 -1.495800 7.725800 -21.884300 -5.734277 -4.835000 31.873790 -0.935165 12.999928 22.894186 -0.251946 -5.772454 -9.934282 -6.577989 -5.483864 -17.296491 5.813508 -7.163658 4.615154 3.766800 -3.077700 3.029600 6.954969 -29.886138 -8.242604 -17.618642 -47.389643 39.212291 34.311896 -8.980862 -22.190050 -8.959376 -8.632748 18.584964 6.238707 24.223498 6.787300 -7.125000 0.000000 0.000000 -26.586100 63.560900 -12.405300 -5.435968 26.133874 0.303469 22.776302 44.787576 20.533717 -37.015801 19.962713 -34.712109 -3.911955 -3.241406 27.117717 -13.787764 19.794269 -5.057900 7.125000 0.000000 0.000000 10.691500 -5.203700 9.854700 
